<svg data-v-423bf9ae="" xmlns="http://www.w3.org/2000/svg" viewBox="0 0 514 90" class="iconLeft"><!----><!----><!----><g data-v-423bf9ae="" id="55579750-5866-4b69-877e-5612d87129e4" fill="#19CEDA" transform="matrix(6.4516127709088735,0,0,6.4516127709088735,157.33226660833614,6.419355333864459)"><path d="M5.10 2.04L5.46 1.33L6.34 1.33L6.34 1.33Q4.94 4.13 3.84 5.78L3.84 5.78L3.84 5.78Q4.26 6.41 4.90 7.59L4.90 7.59L6.44 10.50L5.50 10.50L5.50 10.50Q3.93 7.43 3.18 6.23L3.18 6.23L1.76 6.37L1.76 10.50L0.99 10.50L0.99 1.33L1.76 1.33L1.76 5.66L3.12 5.52L3.12 5.52Q4.12 4.00 5.10 2.04L5.10 2.04ZM7.94 7.18L7.94 7.18L7.94 7.18Q7.94 5.57 8.60 4.67L8.60 4.67L8.60 4.67Q9.27 3.77 10.54 3.77L10.54 3.77L10.54 3.77Q11.82 3.77 12.44 4.61L12.44 4.61L12.44 4.61Q13.06 5.45 13.06 6.85L13.06 6.85L13.02 7.55L8.74 7.55L8.74 7.55Q8.81 8.60 9.30 9.25L9.30 9.25L9.30 9.25Q9.79 9.90 10.65 9.90L10.65 9.90L10.65 9.90Q11.51 9.90 12.67 9.49L12.67 9.49L12.88 10.19L12.88 10.19Q11.75 10.63 10.75 10.63L10.75 10.63L10.75 10.63Q9.38 10.63 8.66 9.71L8.66 9.71L8.66 9.71Q7.94 8.79 7.94 7.18ZM10.60 4.48L10.60 4.48L10.60 4.48Q8.83 4.48 8.74 6.85L8.74 6.85L12.26 6.85L12.26 6.85Q12.26 4.48 10.60 4.48ZM14.49 3.85L15.19 3.85L15.23 4.27L15.23 4.27Q15.93 3.77 16.31 3.77L16.31 3.77L16.31 3.77Q17.23 3.77 17.58 4.37L17.58 4.37L17.58 4.37Q18.37 3.77 18.96 3.77L18.96 3.77L18.96 3.77Q19.87 3.77 20.20 4.33L20.20 4.33L20.20 4.33Q20.54 4.89 20.54 6.05L20.54 6.05L20.54 10.50L19.80 10.50L19.80 6.05L19.80 6.05Q19.80 5.25 19.63 4.87L19.63 4.87L19.63 4.87Q19.46 4.48 18.98 4.48L18.98 4.48L18.98 4.48Q18.51 4.48 17.81 4.93L17.81 4.93L17.81 4.93Q17.89 5.40 17.89 6.05L17.89 6.05L17.89 8.37L17.15 8.37L17.15 6.05L17.15 6.05Q17.15 5.25 16.98 4.87L16.98 4.87L16.98 4.87Q16.80 4.48 16.32 4.48L16.32 4.48L16.32 4.48Q15.85 4.48 15.23 4.93L15.23 4.93L15.23 10.50L14.49 10.50L14.49 3.85ZM33.56 7.52L29.54 7.52L29.54 6.76L33.56 6.76L33.56 7.52ZM43.43 10.50L42.67 10.50L42.67 1.33L43.41 1.33L45.39 6.47L45.60 6.47L47.57 1.33L48.31 1.33L48.31 10.50L47.56 10.50L47.56 3.39L47.50 3.39L46.03 7.18L44.95 7.18L43.48 3.37L43.43 3.37L43.43 10.50ZM49.83 7.20L49.83 7.20L49.83 7.20Q49.83 3.77 52.50 3.77L52.50 3.77L52.50 3.77Q55.17 3.77 55.17 7.20L55.17 7.20L55.17 7.20Q55.17 10.63 52.50 10.63L52.50 10.63L52.50 10.63Q49.83 10.63 49.83 7.20ZM52.50 4.49L52.50 4.49L52.50 4.49Q50.62 4.49 50.62 7.20L50.62 7.20L50.62 7.20Q50.62 9.90 52.50 9.90L52.50 9.90L52.50 9.90Q54.38 9.90 54.38 7.20L54.38 7.20L54.38 7.20Q54.38 4.49 52.50 4.49Z"></path></g><!----><g data-v-423bf9ae="" id="3a1427a7-53f6-4e77-88e5-6846f097e399" transform="matrix(1.32511859137852,0,0,1.32511859137852,0.10154898024660497,-26.825215838960105)" stroke="none" fill="#19CEDA"><path d="M63.482 57.795a6.448 6.448 0 1 1 6.448 6.447 6.45 6.45 0 0 1-6.448-6.447zM90.634 35.19a3.403 3.403 0 1 0-6.805 0 3.403 3.403 0 0 0 6.805 0zm0 15.071a3.4 3.4 0 0 0-3.401-3.401 3.402 3.402 0 1 0 3.401 3.401zm4.134-4.133a3.4 3.4 0 0 0 3.402-3.402 3.402 3.402 0 1 0-6.805 0 3.4 3.4 0 0 0 3.403 3.402zm-15.073.002a3.402 3.402 0 0 0 3.402-3.404 3.4 3.4 0 0 0-3.403-3.403 3.404 3.404 0 0 0 .001 6.807zm-7.707-19.013c0-.702-.57-1.271-1.271-1.271H37.981a1.27 1.27 0 0 0-1.271 1.271v17.598a1.27 1.27 0 0 0 1.271 1.271h16.364v.001h16.369a1.272 1.272 0 0 0 1.273-1.272V27.117zM45.213 57.795a6.447 6.447 0 1 0-6.447 6.447 6.447 6.447 0 0 0 6.447-6.447zm52.402 30.913c-7.213 1.271-14.091-3.545-15.362-10.759l-1.683-9.546a4.15 4.15 0 0 0-3.687-3.277 10.063 10.063 0 0 1-6.953 2.782 10.072 10.072 0 0 1-6.972-2.798h-8.613v-.001h-8.608a10.065 10.065 0 0 1-6.971 2.798c-2.696 0-5.14-1.062-6.954-2.781a4.15 4.15 0 0 0-3.687 3.286l-1.684 9.538c-1.269 7.213-8.147 12.028-15.36 10.758C3.867 87.437-.949 80.557.323 73.345l2.394-13.582c.07-.395.159-.781.262-1.162.591-4.173 4.958-20.07 6.593-25.039.604-1.832 1.485-3.169 2.533-4.133l.006-.01a6.921 6.921 0 0 0 1.981-3.633c.005-.02.013-.022.019-.03.181-.66.78-1.148 1.498-1.149h14.584a1.55 1.55 0 0 1 1.457 1.031c.006.003.011 0 .014.008a2.265 2.265 0 0 0 2.147 1.547c.024 0 .046.007.07.011h1.212v17.512a2.892 2.892 0 0 0 2.887 2.889l14.824-.001 1.541.001h16.369a2.895 2.895 0 0 0 2.89-2.888V27.203h1.207c.027-.004.049-.011.075-.011 1 0 1.848-.65 2.147-1.547.002-.008.008-.005.012-.006a1.551 1.551 0 0 1 1.46-1.033h14.583c.718 0 1.315.489 1.496 1.149.007.009.015.011.019.029a6.934 6.934 0 0 0 1.981 3.634c.003.002.003.004.005.008 1.047.965 1.933 2.302 2.535 4.135 1.636 4.976 6.011 20.905 6.596 25.054.102.376.188.758.257 1.147l2.396 13.582c1.273 7.212-3.545 14.092-10.758 15.364zm-23.04-56.623a1.604 1.604 0 0 0 3.208 0v-2.369c0-.888-.718-1.604-1.604-1.604-.886 0-1.604.717-1.604 1.602v2.371zm-43.661 0c0 .885.719 1.604 1.604 1.604.887 0 1.603-.717 1.603-1.604l.002-2.369a1.605 1.605 0 0 0-3.208-.001v2.37zm3.082 10.646c.002-6.956-5.638-12.593-12.594-12.594-6.956 0-12.592 5.638-12.594 12.594.002 6.956 5.64 12.593 12.594 12.593 6.956 0 12.594-5.639 12.594-12.593zm12.51 15.063a7.74 7.74 0 0 0-15.478.001 7.737 7.737 0 0 0 7.739 7.737c4.272.003 7.736-3.464 7.739-7.738zm10.642.065c0-1.548-1.252-2.8-2.798-2.801l-.001-.001a2.803 2.803 0 0 0-2.803 2.801 2.801 2.801 0 0 0 5.602.001zm20.52-.065a7.737 7.737 0 1 0-15.474.001 7.738 7.738 0 0 0 7.737 7.737 7.732 7.732 0 0 0 7.737-7.738zm22.156-15.068c0-6.955-5.637-12.594-12.592-12.594-6.957 0-12.595 5.638-12.595 12.594 0 6.955 5.638 12.594 12.595 12.594 6.956 0 12.592-5.639 12.592-12.594zm-76.643-8.75h-3.556c-.656 0-1.188.531-1.188 1.186v3.322c0 .317.127.603.328.814l.046.044 1.752 1.754a1.184 1.184 0 0 0 1.677 0l1.755-1.754.046-.045c.201-.211.326-.498.326-.813v-3.322c0-.655-.532-1.186-1.186-1.186zm-3.559 17.51l3.559-.003c.654 0 1.187-.53 1.187-1.186V46.977a1.18 1.18 0 0 0-.326-.814l-.046-.044-1.755-1.755a1.184 1.184 0 0 0-1.676 0l-1.756 1.755-.043.044a1.18 1.18 0 0 0-.328.814V50.297c0 .657.531 1.186 1.184 1.189zm10.534-6.976v-3.559c0-.654-.531-1.187-1.186-1.187H25.65c-.318 0-.601.126-.814.328l-.045.044-1.754 1.755a1.186 1.186 0 0 0 0 1.677l1.754 1.755.045.044c.213.201.496.328.814.328h3.321a1.185 1.185 0 0 0 1.185-1.185zm-17.507-3.558v3.559a1.184 1.184 0 0 0 1.186 1.186H17.155c.317 0 .602-.125.815-.328l.044-.044 1.754-1.755a1.184 1.184 0 0 0 0-1.677l-1.752-1.755-.046-.044a1.18 1.18 0 0 0-.815-.328h-1.969l-1.351.001a1.185 1.185 0 0 0-1.186 1.185zm80.665-17.71a1.262 1.262 0 0 0-.291-.805 7.598 7.598 0 0 0-.992-.469c-1.536-.6-3.697-.975-6.096-.975-2.395 0-4.557.375-6.091.975-.37.145-.702.301-.993.469a1.274 1.274 0 0 0-.292.805v.424h14.755v-.424zm-63.177 0a1.26 1.26 0 0 0-.293-.805 7.49 7.49 0 0 0-.989-.469c-1.538-.601-3.699-.975-6.094-.975-2.398 0-4.561.375-6.094.975-.37.145-.7.302-.993.471-.18.219-.292.496-.293.803v.424h14.756v-.424z"></path></g><!----></svg>